<?xml version="1.0" encoding="UTF-8"?>
<svg enable-background="new 0 0 415.998 415.998" version="1.1" viewBox="0 0 416 416" xml:space="preserve" xmlns="http://www.w3.org/2000/svg">

	
		<circle cx="208.24" cy="48" r="12"/>
	


	
		<path d="m368 95.999c0-17.673-14.326-32-31.999-32h-44.424c-5.926-6.583-13.538-11.62-22.284-14.136-7.367-2.118-13.037-7.788-15.156-15.155-5.765-20.045-24.238-34.708-46.137-34.708-21.898 0-40.37 14.663-46.134 34.706-2.122 7.376-7.806 13.039-15.182 15.164-8.736 2.518-16.341 7.55-22.262 14.129h-44.421c-17.674 0-32 14.327-32 32v288c0 17.673 14.326 32 32 32h256c17.674 0 32-14.327 32-32 0-90.879-1e-3 -177.9-1e-3 -288zm-240-0.257c0.11-14.066 9.614-26.606 23.112-30.496 12.71-3.662 22.477-13.426 26.127-26.116 3.918-13.62 16.566-23.13 30.759-23.13 14.194 0 26.842 9.51 30.758 23.13 3.652 12.698 13.413 22.459 26.111 26.11 13.618 3.917 23.13 16.566 23.13 30.758v16h-160v-16.256zm208 304.26h-256c-8.823 0-16-7.178-16-16v-288c0-8.822 7.177-16 16-16h34.742c-1.73 4.892-2.698 10.143-2.74 15.617v32.383h192v-32c0-5.615-0.992-10.991-2.764-16h34.764c8.822 0 15.999 7.178 15.999 16 0 45.743-1e-3 260.25 2e-3 288-1e-3 8.822-7.178 16-16.001 16z"/>
	

















<g transform="matrix(.47421 0 0 .47421 86.374 156.38)" fill="#000080"><path d="m506.93 238.94c-6.207-5.4844-15.688-4.8945-21.172 1.3125l-0.24219 0.27344v-10.512c0-61.305-23.875-118.94-67.227-162.29-43.348-43.348-100.98-67.219-162.29-67.219-37.031 0-73.828 9.0312-106.42 26.113-31.531 16.527-59.207 40.57-80.035 69.535-4.8359 6.7227-3.3047 16.098 3.4219 20.934 6.7266 4.8398 16.102 3.3086 20.938-3.418 18.117-25.195 42.188-46.109 69.605-60.48 28.309-14.84 60.289-22.684 92.488-22.684 110.01 0 199.52 89.504 199.52 199.52v10.512l-0.24609-0.27343c-5.4844-6.2109-14.965-6.7969-21.172-1.3125-6.2109 5.4844-6.7969 14.965-1.3125 21.172l26.484 29.984c2.8477 3.2226 6.9414 5.0664 11.242 5.0664s8.3945-1.8438 11.242-5.0664l26.484-29.984c5.4883-6.2109 4.9023-15.691-1.3086-21.176z"/><path d="m439.03 342.89c-6.7266-4.8359-16.098-3.3086-20.938 3.418-18.117 25.191-42.188 46.105-69.605 60.48-28.309 14.84-60.293 22.684-92.488 22.684-110.01 0-199.52-89.504-199.52-199.52v-10.512l0.24609 0.27735c5.4844 6.207 14.965 6.7969 21.172 1.3086 6.2109-5.4844 6.7969-14.965 1.3125-21.172l-26.484-29.984c-2.8516-3.2227-6.9414-5.0703-11.242-5.0703s-8.3984 1.8476-11.242 5.0703l-26.488 29.984c-5.4844 6.2109-4.8984 15.688 1.3125 21.172 2.8516 2.5234 6.3945 3.7617 9.9258 3.7617 4.1484 0 8.2812-1.7148 11.246-5.0703l0.24219-0.27735v10.512c0 61.309 23.875 118.94 67.227 162.29 43.348 43.352 100.98 67.223 162.29 67.223 37.027 0 73.828-9.0312 106.42-26.113 31.527-16.527 59.203-40.574 80.031-69.535 4.8359-6.7266 3.3086-16.098-3.418-20.934z"/><path d="m108.05 268.39c-1.0312 3.8398-0.49219 7.9336 1.5 11.379l30 51.965c1.9883 3.4453 5.2656 5.957 9.1055 6.9883 3.8438 1.0273 7.9375 0.49218 11.383-1.5l22.059-12.734c8.8086 6.8828 18.57 12.531 28.906 16.727v25.434c0 8.2812 6.7148 15 15 15h60c8.2812 0 15-6.7188 15-15v-25.434c10.336-4.1953 20.098-9.8438 28.906-16.727l22.059 12.734c3.4414 1.9883 7.5391 2.5273 11.379 1.5 3.8438-1.0312 7.1211-3.543 9.1094-6.9883l30-51.965c1.9883-3.4453 2.5274-7.5391 1.5-11.379-1.0312-3.8438-3.5469-7.1211-6.9883-9.1094l-22.105-12.762c0.75782-5.4766 1.1406-11.02 1.1406-16.562 0-5.6094-0.39063-11.207-1.168-16.746l22.133-12.777c3.4453-1.9883 5.957-5.2656 6.9883-9.1094 1.0274-3.8438 0.48829-7.9375-1.5-11.383l-30-51.961c-4.1406-7.1719-13.316-9.6289-20.488-5.4883l-22.203 12.82c-8.7734-6.832-18.484-12.441-28.762-16.613v-25.633c0-8.2812-6.7148-15-15-15h-60c-8.2852 0-15 6.7188-15 15v25.633c-10.273 4.1719-19.988 9.7812-28.758 16.613l-22.207-12.82c-7.1719-4.1445-16.348-1.6836-20.488 5.4883l-30 51.961c-1.9883 3.4453-2.5274 7.543-1.5 11.383 1.0312 3.8438 3.543 7.1211 6.9883 9.1094l22.133 12.777c-0.77735 5.5391-1.168 11.137-1.168 16.746 0 5.543 0.38281 11.082 1.1406 16.562l-22.102 12.762c-3.4492 1.9883-5.9609 5.2656-6.9922 9.1094zm147.95-83.434c24.852 0 45 20.148 45 45s-20.148 45-45 45c-24.855 0-45-20.148-45-45s20.148-45 45-45z"/></g></svg>
