<?xml version="1.0" encoding="UTF-8"?>
<svg enable-background="new 0 0 415.998 415.998" version="1.1" viewBox="0 0 416 416" xml:space="preserve" xmlns="http://www.w3.org/2000/svg">



















	
		<circle cx="208.24" cy="48" r="12"/>
	
<path d="m368 95.999c0-17.673-14.326-32-31.999-32h-44.424c-5.926-6.583-13.538-11.62-22.284-14.136-7.367-2.118-13.037-7.788-15.156-15.155-5.765-20.045-24.238-34.708-46.137-34.708-21.898 0-40.37 14.663-46.134 34.706-2.122 7.376-7.806 13.039-15.182 15.164-8.736 2.518-16.341 7.55-22.262 14.129h-44.421c-17.674 0-32 14.327-32 32v288c0 17.673 14.326 32 32 32h256c17.674 0 32-14.327 32-32 0-90.879-1e-3 -177.9-1e-3 -288zm-240-0.257c0.11-14.066 9.614-26.606 23.112-30.496 12.71-3.662 22.477-13.426 26.127-26.116 3.918-13.62 16.566-23.13 30.759-23.13 14.194 0 26.842 9.51 30.758 23.13 3.652 12.698 13.413 22.459 26.111 26.11 13.618 3.917 23.13 16.566 23.13 30.758v16h-160zm208 304.26h-256c-8.823 0-16-7.178-16-16v-288c0-8.822 7.177-16 16-16h34.742c-1.73 4.892-2.698 10.143-2.74 15.617v32.383h192v-32c0-5.615-0.992-10.991-2.764-16h34.764c8.822 0 15.999 7.178 15.999 16 0 45.743-1e-3 260.25 2e-3 288-1e-3 8.822-7.178 16-16.001 16z"/><g transform="matrix(.95276 .20249 -.20249 .95276 138.44 100.05)"><path d="m23.704 145.48c0.44042-0.38675 5.0387 1.9902 5.5135 2.1994 4.6699 2.0535 9.1911 4.4318 13.526 7.1211 11.227 6.8706 20.641 16.334 27.452 27.597 5.5425 9.2296 9.7389 26.38 23.136 26.38 6.4178 0 13.712 0.20783 18.59-4.6878 5.9622-5.9911 6.0696-14.735 7.9125-22.47 9.1319-36.479 26.571-70.353 50.954-98.982 1.4974-1.7906 3.0183-3.5633 4.5598-5.3167 3.1311-3.5193 6.4536-6.8637 9.9508-10.02 0.47483-0.43079 1.2979-1.313 2.2792-2.3205 0.89874-0.91663 1.1547-2.2861 0.64687-3.4656-0.50648-1.1795-1.6764-1.9365-2.9605-1.9145-20.151 0.63999-68.096 11.188-95.098 92.209 0 0-41.144-28.484-66.463-6.3297z" fill="#4fba6f" stroke-width=".35234"/><g transform="matrix(.35234 0 0 .35234 18.692 59.596)" fill="#71c285"><path d="m301.67 162.9c-1.5234 0-3.0195-0.38672-4.3477-1.1328-4.3359-2.4062-5.8984-7.8711-3.4961-12.207 45.73-82.324 100.36-110.32 102.63-111.47 4.4375-2.2305 9.8398-0.44531 12.074 3.9883 2.2305 4.4375 0.44531 9.8398-3.9883 12.074-0.6836 0.34766-52.223 27.152-94.988 104.13-1.5898 2.8633-4.6133 4.6367-7.8867 4.625z"/><path d="m274.72 207.81c-3.1133 0-6-1.6133-7.6367-4.2578-1.6367-2.6484-1.7852-5.9531-0.39453-8.7383l8.9844-17.965c1.4336-2.8711 4.293-4.7578 7.4961-4.9492 3.207-0.19141 6.2695 1.3398 8.0352 4.0195 1.7695 2.6797 1.9727 6.0976 0.53907 8.9688l-8.9844 17.965c-1.5234 3.043-4.6367 4.9609-8.0391 4.957z"/></g></g></svg>
