<?xml version="1.0" encoding="UTF-8"?>
<svg version="1.1" viewBox="0 0 391.29 475.63" xml:space="preserve" xmlns="http://www.w3.org/2000/svg">



















<g transform="translate(-10.108 -27.826)"><g transform="matrix(.76882 0 0 .76882 -8.9389 27.826)"><path d="m82.581 330.32h-16.517c-22.804 0-41.29-18.486-41.29-41.29 0-13.682 11.092-24.774 24.774-24.774h33.032v66.064z" fill="#bd4150"/><path d="m396.39 0h-305.55l-8.506 16.516v487.48h388.38l16.516-8.516v-404.64z" fill="#eceaec"/><path d="m90.839 470.71v-470.71c-9.121 0-16.516 7.394-16.516 16.516v478.97c0 9.122 7.395 16.516 16.516 16.516h379.87c9.121 0 16.516-7.395 16.516-16.516h-371.61c-13.683 0-24.774-11.092-24.774-24.774z" fill="#dad8db"/><path d="m487.23 89.421c0-4.38-1.74-8.581-4.838-11.679l-72.908-72.905c-3.097-3.097-7.298-4.837-11.678-4.837h-1.415v82.581c0 4.56 3.697 8.258 8.258 8.258h82.581z" fill="#dad8db"/><path d="m305.55 313.81h-256c-2.896 0-5.677-0.497-8.261-1.411l-7.954 13.271v104.33c0 13.683 11.092 24.774 24.774 24.774h247.44l16.516-8.839v-115.61c0-9.122-7.394-16.516-16.516-16.516z" fill="#e15f78"/><path d="m41.29 312.4c-9.6-3.413-16.516-12.592-16.516-23.364v148.64c0 13.682 11.092 24.774 24.774 24.774h256c9.121 0 16.516-7.395 16.516-16.516h-256c-13.682 0-24.774-11.092-24.774-24.774z" fill="#db4655"/><g fill="#fff"><path d="m260.45 379.25h-16.21v-15.653h18.323c4.565 0 8.258-3.698 8.258-8.258s-3.694-8.258-8.258-8.258h-26.581c-4.565 0-8.258 3.698-8.258 8.258v65.581c0 4.56 3.694 8.258 8.258 8.258s8.258-3.698 8.258-8.258v-25.153h16.21c4.565 0 8.258-3.698 8.258-8.258s-3.694-8.259-8.258-8.259z"/><path d="m108.99 346.84h-18.395c-2.194 0-4.298 0.875-5.847 2.427-1.541 1.549-2.406 3.647-2.406 5.831h-6e-3v66.065c0 4.56 3.694 8.258 8.258 8.258s8.258-3.698 8.258-8.258v-20.482c3.705-0.02 7.778-0.038 10.137-0.038 15.032 0 27.266-12.069 27.266-26.899 1e-3 -14.836-12.233-26.904-27.265-26.904zm0 37.286c-2.339 0-6.371 0.016-10.056 0.036-0.016-3.81-0.056-20.806-0.056-20.806h10.113c5.831 0 10.75 4.758 10.75 10.387s-4.92 10.383-10.751 10.383z"/><path d="m178.24 347.82h-18.153c-2.194 0-4.298 0.871-5.847 2.423-1.548 1.552-2.419 3.657-2.411 5.851l0.048 31.968c0 8.915 0.081 32.157 0.081 32.157 8e-3 2.19 0.887 4.29 2.444 5.835 1.54 1.532 3.637 2.395 5.815 2.395h0.032s13.46-0.052 18.669-0.141c19.395-0.343 33.476-17.238 33.476-40.173-1e-3 -24.114-13.727-40.315-34.154-40.315zm0.387 63.971c-2.363 0.04-6.452 0.077-10.177 0.097-0.024-7.56-0.056-18.375-0.056-23.827l-0.032-23.726h9.879c16.79 0 17.637 19.823 17.637 23.798-1e-3 11.626-5.332 23.449-17.251 23.658z"/></g><path d="m197.94 279.36c-6.371 0-12.129-3.315-16.177-9.569-6.016-9.282-4.435-19.794 4.331-28.843 8.839-9.129 26.927-17.718 48.694-24.73 6.79-12.798 13.702-27.778 20.161-44.339 3.815-9.786 6.895-18.609 9.363-26.5-10.879-19.944-17.347-38.512-15.629-50.569 1.75-12.234 10.887-19.121 24.468-18.371 4.032 0.218 13.653 2.323 15.976 17.137 1.774 11.327-1.21 29.637-7.194 50.444 11.323 19.101 26.847 39.56 42.032 55.262 22.952-1.399 42.403 0.274 52.185 6.177 7.661 4.621 10.669 12.157 8.048 20.153-4.29 13.069-14.653 19.056-27.75 16.004-11.024-2.573-24.685-12.198-38.54-25.56-22.282 1.96-48.508 6.496-71.516 13.262-13.734 24.649-28.581 43.839-41.048 48.605-2.516 0.965-5 1.437-7.404 1.437zm-2.322-18.544c1.379 2.121 2.137 2.077 2.492 2.036 5.258-0.536 14.016-9.613 24.016-24.956-6.613 2.835-12.54 5.907-17.524 9.206-12.5 8.278-9.847 12.367-8.984 13.714zm145.48-45.851c7.056 5.516 13.613 9.286 19.097 10.569 4.282 0.996 6.484 0.488 8.306-5.065-2.435-3.694-12.798-5.468-27.403-5.504zm-65.589-50.92c-5.379 15.315-11.96 31.173-19.145 46.036 15.476-3.887 31.79-6.948 47.371-8.891-10.073-11.415-19.807-24.237-28.226-37.145zm-3.976-71.427c-5.863 0-6.169 2.198-6.508 4.52-0.863 6.101 1.282 14.778 5.516 24.782 3.734-17.827 2.976-27.258 1.161-29.302h-0.169z" fill="#e15f78"/></g><g transform="matrix(.62013 0 0 .62013 93.432 185.95)"><path d="m479.15 287.46c6.145 0 11.838 3.228 14.993 8.502s3.307 11.817 0.402 17.232l-102.68 191.34c-2.468 4.599-7.264 7.468-12.483 7.468s-10.015-2.87-12.483-7.468l-102.68-191.34c-2.905-5.415-2.753-11.958 0.402-17.232s8.848-8.502 14.993-8.502h53.495v-121.48c0-7.824 6.343-14.167 14.167-14.167h64.215c7.824 0 14.167 6.343 14.167 14.167v121.48z" fill="#940009"/><path d="m379.38 512c-5.219 0-10.016-2.87-12.483-7.468l-102.68-191.34c-2.905-5.415-2.753-11.958 0.402-17.232s8.848-8.502 14.993-8.502h53.495v-121.48c0-7.824 6.343-14.167 14.167-14.167h32.108v360.19z" fill="#ff0029"/></g></g></svg>
