<?xml version="1.0" encoding="UTF-8"?>
<svg version="1.1" viewBox="0 0 391.29 475.63" xml:space="preserve" xmlns="http://www.w3.org/2000/svg">



















<g transform="translate(-10.108 -27.826)"><path d="m54.551 281.79h-12.699c-17.532 0-31.745-14.212-31.745-31.745 0-10.519 8.5278-19.047 19.047-19.047h25.396v50.792z" fill="#008080" stroke-width=".76882"/><path d="m295.81 27.826h-234.91l-6.5396 12.698v374.79h298.59l12.698-6.5473v-311.1z" fill="#eceaec" stroke-width=".76882"/><path d="m60.9 389.72v-361.89c-7.0124 0-12.698 5.6847-12.698 12.698v368.24c0 7.0132 5.6854 12.698 12.698 12.698h292.05c7.0124 0 12.698-5.6854 12.698-12.698h-285.7c-10.52 0-19.047-8.5278-19.047-19.047z" fill="#dad8db" stroke-width=".76882"/><path d="m365.65 96.575c0-3.3674-1.3378-6.5973-3.7196-8.9791l-56.053-56.051c-2.381-2.381-5.6109-3.7188-8.9783-3.7188h-1.0879v63.49c0 3.5058 2.8423 6.3489 6.3489 6.3489h63.49z" fill="#dad8db" stroke-width=".76882"/><path d="m225.97 269.09h-196.82c-2.2265 0-4.3646-0.3821-6.3512-1.0848l-6.1152 10.203v80.214c0 10.52 8.5278 19.047 19.047 19.047h190.24l12.698-6.7956v-88.885c0-7.0132-5.6847-12.698-12.698-12.698z" fill="#009d9d" stroke-width=".76882"/><path d="m22.806 268c-7.3807-2.624-12.698-9.681-12.698-17.963v114.28c0 10.519 8.5278 19.047 19.047 19.047h196.82c7.0124 0 12.698-5.6854 12.698-12.698h-196.82c-10.519 0-19.047-8.5278-19.047-19.047z" fill="#008080" stroke-width=".76882"/><path d="m390.56 364.21c3.8107 0 7.3411 2.0018 9.2976 5.2723 1.9565 3.2706 2.0508 7.3281 0.24929 10.686l-63.676 118.65c-1.5305 2.852-4.5046 4.6311-7.7411 4.6311-3.2364 0-6.2106-1.7798-7.7411-4.6311l-63.677-118.66c-1.8015-3.358-1.7072-7.4155 0.2493-10.686 1.9565-3.2706 5.4869-5.2723 9.2976-5.2723h33.174v-75.331c0-4.8519 3.9335-8.7854 8.7854-8.7854h39.822c4.8519 0 8.7854 3.9335 8.7854 8.7854v75.333z" fill="#008080" stroke-width=".62013"/><path d="m328.69 503.45c-3.2364 0-6.2112-1.7798-7.7411-4.6311l-63.677-118.66c-1.8015-3.358-1.7072-7.4155 0.2493-10.686 1.9565-3.2706 5.4869-5.2723 9.2976-5.2723h33.174v-75.331c0-4.8519 3.9335-8.7854 8.7854-8.7854h19.911v223.36z" fill="#009d9d" stroke-width=".62013"/><g transform="matrix(.39164 0 0 .39164 94.99 58.097)"><path d="m219.65 75.543c-15.273 0-27.654 12.381-27.654 27.654v363.41h128v-363.41c0-15.273-12.381-27.654-27.654-27.654z" fill="#b1e4f9"/><path d="m255.71 75.54c-15.267 0-27.65 12.383-27.65 27.65v363.42h-36.056v-363.42c0-15.267 12.383-27.65 27.65-27.65h36.056z" fill="#90d8f9"/></g><g transform="matrix(.39164 0 0 .39164 94.99 58.097)"><path d="m390.24 3.07c-15.273 0-27.654 12.381-27.654 27.654v435.89h128v-435.88c0-15.273-12.381-27.654-27.654-27.654h-72.692z" fill="#ffe07d"/><path d="m426.29 3.068c-15.267 0-27.65 12.383-27.65 27.65v435.89h-36.056v-435.89c0-15.267 12.383-27.65 27.65-27.65z" fill="#ffd064"/></g><g transform="matrix(.39164 0 0 .39164 94.99 58.097)"><path d="m54.224 160.2c-15.273 0-27.654 12.381-27.654 27.654v278.76h128v-278.76c0-15.273-12.381-27.654-27.654-27.654z" fill="#df75a5"/><path d="m90.276 160.2c-15.267 0-27.65 12.383-27.65 27.65v278.76h-36.057v-278.76c0-15.267 12.383-27.65 27.65-27.65z" fill="#dd5790"/></g><g transform="matrix(.39164 0 0 .39164 94.99 58.097)"><path d="m420 172.8-109.52 36.629c-17.081 5.713-21.572 27.775-8.083 39.711l18.643 16.496-41.403 46.792-100.81-62.829c-14.632-9.12-33.819-5.377-43.951 8.569l-78.128 107.53c-10.664 14.677-7.411 35.22 7.266 45.885 5.831 4.236 12.587 6.277 19.283 6.277 10.158 0 20.175-4.697 26.603-13.543l60.143-82.775 98.412 61.336c13.609 8.483 31.352 5.898 41.977-6.109l59.809-67.593 18.649 16.501c13.489 11.936 34.841 4.792 38.432-12.858l23.02-113.16c3.589-17.648-13.271-32.566-30.35-26.853z" fill="#b3e59f"/><g fill="#95d6a4"><path d="m302.4 249.14 18.643 16.496-41.403 46.792 23.163 13.66 41.403-46.792-18.643-16.496c-13.489-11.936-8.998-33.998 8.083-39.711l109.52-36.629c1.873-0.626 3.741-0.991 5.581-1.145-4.701-10.269-16.663-16.556-28.744-12.515l-109.52 36.629c-17.081 5.713-21.572 27.775-8.083 39.711z"/><path d="m79.918 379.36 78.128-107.53c8.815-12.133 24.484-16.539 38.045-11.473l-17.257-10.755c-14.632-9.12-33.819-5.377-43.951 8.569l-78.127 107.53c-10.664 14.677-7.411 35.221 7.266 45.885 4.777 3.47 10.176 5.443 15.653 6.052-7.906-11.177-8.251-26.586 0.243-38.277z"/></g></g><path d="m287.12 240.64h-183.74c-4.6331 0-8.3886 3.7554-8.3886 8.3882s3.7554 8.3886 8.3886 8.3886h183.74c4.6327 0 8.3886-3.7554 8.3886-8.3886-4e-4 -4.6327-3.7558-8.3882-8.389-8.3882z" fill="#4a80aa" stroke-width=".39164"/><path d="m116.39 254.96c1.5168 1.5172 3.6148 2.4572 5.931 2.4572h-18.939c-2.3158 0-4.4138-0.93994-5.931-2.4572-1.5172-1.5172-2.4572-3.6148-2.4572-5.931 0-4.6315 3.7562-8.3878 8.3882-8.3878h18.939c-4.6315 0-8.3882 3.7562-8.3882 8.3878 0 2.3162 0.93994 4.4138 2.4572 5.931z" fill="#407093" stroke-width=".39164"/><text x="64.206215" y="345.50192" font-family="sans-serif" font-size="74.667px" font-weight="bold" style="line-height:1.25" xml:space="preserve"><tspan x="64.206215" y="345.50192" fill="#ffffff" font-family="Dyuthi" font-size="74.667px" font-weight="bold">PNG</tspan></text></g></svg>
