<?xml version="1.0" encoding="UTF-8" standalone="no"?>
<!-- Generator: Adobe Illustrator 19.0.0, SVG Export Plug-In . SVG Version: 6.00 Build 0)  -->

<svg
   version="1.1"
   id="Layer_1"
   x="0px"
   y="0px"
   viewBox="0 0 391.29144 475.62646"
   xml:space="preserve"
   sodipodi:docname="download.svg"
   width="391.29144"
   height="475.62646"
   inkscape:version="1.1 (c4e8f9e, 2021-05-24)"
   xmlns:inkscape="http://www.inkscape.org/namespaces/inkscape"
   xmlns:sodipodi="http://sodipodi.sourceforge.net/DTD/sodipodi-0.dtd"
   xmlns="http://www.w3.org/2000/svg"
   xmlns:svg="http://www.w3.org/2000/svg"><defs
   id="defs969" /><sodipodi:namedview
   id="namedview967"
   pagecolor="#ffffff"
   bordercolor="#666666"
   borderopacity="1.0"
   inkscape:pageshadow="2"
   inkscape:pageopacity="0.0"
   inkscape:pagecheckerboard="0"
   showgrid="false"
   inkscape:zoom="0.5855728"
   inkscape:cx="408.14737"
   inkscape:cy="483.28747"
   inkscape:window-width="1920"
   inkscape:window-height="1025"
   inkscape:window-x="3520"
   inkscape:window-y="27"
   inkscape:window-maximized="1"
   inkscape:current-layer="layer2" />




<g
   id="g936"
   transform="translate(-10.107961,-27.826484)">
</g>
<g
   id="g938"
   transform="translate(-10.107961,-27.826484)">
</g>
<g
   id="g940"
   transform="translate(-10.107961,-27.826484)">
</g>
<g
   id="g942"
   transform="translate(-10.107961,-27.826484)">
</g>
<g
   id="g944"
   transform="translate(-10.107961,-27.826484)">
</g>
<g
   id="g946"
   transform="translate(-10.107961,-27.826484)">
</g>
<g
   id="g948"
   transform="translate(-10.107961,-27.826484)">
</g>
<g
   id="g950"
   transform="translate(-10.107961,-27.826484)">
</g>
<g
   id="g952"
   transform="translate(-10.107961,-27.826484)">
</g>
<g
   id="g954"
   transform="translate(-10.107961,-27.826484)">
</g>
<g
   id="g956"
   transform="translate(-10.107961,-27.826484)">
</g>
<g
   id="g958"
   transform="translate(-10.107961,-27.826484)">
</g>
<g
   id="g960"
   transform="translate(-10.107961,-27.826484)">
</g>
<g
   id="g962"
   transform="translate(-10.107961,-27.826484)">
</g>
<g
   id="g964"
   transform="translate(-10.107961,-27.826484)">
</g>
<g
   inkscape:groupmode="layer"
   id="layer1"
   inkscape:label="Layer 1"
   transform="translate(-10.107961,-27.826484)" /><g
   inkscape:groupmode="layer"
   id="layer2"
   inkscape:label="Layer 2"
   transform="translate(-10.107961,-27.826484)"><path
     d="M 54.551294,281.7863 H 41.85265 c -17.532233,0 -31.744689,-14.21246 -31.744689,-31.74469 0,-10.51903 8.527781,-19.04681 19.046813,-19.04681 h 25.395751 v 50.7915 z"
     fill="#bd4150"
     id="path1211"
     style="stroke-width:0.768823" /><path
     d="M 295.81246,27.826484 H 60.900231 L 54.360626,40.524359 V 415.31311 H 352.95367 l 12.69788,-6.54729 V 97.665567 Z"
     fill="#eceaec"
     id="path1213"
     style="stroke-width:0.768823" /><path
     d="M 60.900231,389.71901 V 27.826484 c -7.012431,0 -12.697875,5.684675 -12.697875,12.697875 V 408.76582 c 0,7.0132 5.685444,12.69788 12.697875,12.69788 H 352.95367 c 7.01243,0 12.69788,-5.68545 12.69788,-12.69788 H 79.947045 c -10.519801,0 -19.046814,-8.52778 -19.046814,-19.04681 z"
     fill="#dad8db"
     id="path1215"
     style="stroke-width:0.768823" /><path
     d="m 365.65155,96.575377 c 0,-3.367443 -1.33775,-6.597268 -3.71957,-8.97908 L 305.87866,31.545279 c -2.38104,-2.381044 -5.61087,-3.718795 -8.97831,-3.718795 h -1.08789 V 91.31663 c 0,3.505831 2.84234,6.348937 6.34894,6.348937 h 63.49015 z"
     fill="#dad8db"
     id="path1217"
     style="stroke-width:0.768823" /><path
     d="M 225.97338,269.08842 H 29.154774 c -2.22651,0 -4.364606,-0.3821 -6.351244,-1.08481 l -6.115216,10.20305 v 80.21358 c 0,10.5198 8.527782,19.04681 19.046813,19.04681 H 225.97338 l 12.69788,-6.79562 V 281.7863 c 0,-7.0132 -5.68468,-12.69788 -12.69788,-12.69788 z"
     fill="#e15f78"
     id="path1219"
     style="stroke-width:0.768823" /><path
     d="M 22.805836,268.00361 C 15.425139,265.37962 10.107961,258.3226 10.107961,250.04084 v 114.28165 c 0,10.51903 8.527781,19.04681 19.046813,19.04681 H 225.97338 c 7.01243,0 12.69788,-5.68544 12.69788,-12.69787 H 41.85265 c -10.519032,0 -19.046814,-8.52779 -19.046814,-19.04682 z"
     fill="#db4655"
     id="path1221"
     style="stroke-width:0.768823" /><g
     fill="#ffffff"
     id="g1229"
     transform="matrix(0.76882268,0,0,0.76882268,-8.938852,27.826484)" /><g
     id="g1254"
     transform="matrix(0.62012936,0,0,0.62012936,93.431836,185.94673)"><path
       style="fill:#940009"
       d="m 479.147,287.459 c 6.145,0 11.838,3.228 14.993,8.502 3.155,5.274 3.307,11.817 0.402,17.232 L 391.86,504.532 c -2.468,4.599 -7.264,7.468 -12.483,7.468 -5.219,0 -10.015,-2.87 -12.483,-7.468 L 264.21,313.191 c -2.905,-5.415 -2.753,-11.958 0.402,-17.232 3.155,-5.274 8.848,-8.502 14.993,-8.502 H 333.1 V 165.98 c 0,-7.824 6.343,-14.167 14.167,-14.167 h 64.215 c 7.824,0 14.167,6.343 14.167,14.167 v 121.479 z"
       id="path932" /><path
       style="fill:#ff0029"
       d="m 379.377,512 v 0 c -5.219,0 -10.016,-2.87 -12.483,-7.468 L 264.21,313.191 c -2.905,-5.415 -2.753,-11.958 0.402,-17.232 3.155,-5.274 8.848,-8.502 14.993,-8.502 H 333.1 V 165.98 c 0,-7.824 6.343,-14.167 14.167,-14.167 h 32.108 V 512 Z"
       id="path934" /></g><g
     id="g1983"
     transform="matrix(0.43512055,0,0,0.43512055,78.989807,43.9632)"><g
       id="g1955"><path
         d="M 219.654,75.543 C 204.381,75.543 192,87.924 192,103.197 V 466.61 H 320 V 103.197 C 320,87.924 307.619,75.543 292.346,75.543 Z"
         fill="#b1e4f9"
         id="path1951" /><path
         d="m 255.706,75.54 c -15.267,0 -27.65,12.383 -27.65,27.65 V 466.61 H 192 V 103.191 c 0,-15.267 12.383,-27.65 27.65,-27.65 h 36.056 z"
         fill="#90d8f9"
         id="path1953" /></g><g
       id="g1961"><path
         d="m 390.236,3.07 c -15.273,0 -27.654,12.381 -27.654,27.654 V 466.61 h 128 V 30.725 c 0,-15.273 -12.381,-27.654 -27.654,-27.654 h -72.692 z"
         fill="#ffe07d"
         id="path1957" /><path
         d="m 426.288,3.068 c -15.267,0 -27.65,12.383 -27.65,27.65 V 466.61 H 362.582 V 30.718 c 0,-15.267 12.383,-27.65 27.65,-27.65 z"
         fill="#ffd064"
         id="path1959" /></g><g
       id="g1967"><path
         d="m 54.224,160.199 c -15.273,0 -27.654,12.381 -27.654,27.654 V 466.61 h 128 V 187.853 c 0,-15.273 -12.381,-27.654 -27.654,-27.654 z"
         fill="#df75a5"
         id="path1963" /><path
         d="m 90.276,160.196 c -15.267,0 -27.65,12.383 -27.65,27.65 V 466.61 H 26.569 V 187.846 c 0,-15.267 12.383,-27.65 27.65,-27.65 z"
         fill="#dd5790"
         id="path1965" /></g><g
       id="g1977"><path
         d="m 420,172.804 -109.515,36.629 c -17.081,5.713 -21.572,27.775 -8.083,39.711 l 18.643,16.496 -41.403,46.792 -100.807,-62.829 c -14.632,-9.12 -33.819,-5.377 -43.951,8.569 L 56.756,365.699 c -10.664,14.677 -7.411,35.22 7.266,45.885 5.831,4.236 12.587,6.277 19.283,6.277 10.158,0 20.175,-4.697 26.603,-13.543 l 60.143,-82.775 98.412,61.336 c 13.609,8.483 31.352,5.898 41.977,-6.109 l 59.809,-67.593 18.649,16.501 c 13.489,11.936 34.841,4.792 38.432,-12.858 L 450.35,199.657 C 453.939,182.009 437.079,167.091 420,172.804 Z"
         fill="#b3e59f"
         id="path1969" /><g
         fill="#95d6a4"
         id="g1975"><path
           d="m 302.402,249.144 18.643,16.496 -41.403,46.792 23.163,13.66 41.403,-46.792 -18.643,-16.496 c -13.489,-11.936 -8.998,-33.998 8.083,-39.711 l 109.515,-36.629 c 1.873,-0.626 3.741,-0.991 5.581,-1.145 C 444.043,175.05 432.081,168.763 420,172.804 l -109.515,36.629 c -17.081,5.713 -21.572,27.775 -8.083,39.711 z"
           id="path1971" /><path
           d="m 79.918,379.359 78.128,-107.528 c 8.815,-12.133 24.484,-16.539 38.045,-11.473 l -17.257,-10.755 c -14.632,-9.12 -33.819,-5.377 -43.951,8.569 L 56.756,365.699 c -10.664,14.677 -7.411,35.221 7.266,45.885 4.777,3.47 10.176,5.443 15.653,6.052 -7.906,-11.177 -8.251,-26.586 0.243,-38.277 z"
           id="path1973" /></g></g><path
       d="M 490.581,466.095 H 21.419 C 9.589,466.095 0,475.684 0,487.513 c 0,11.829 9.589,21.419 21.419,21.419 h 469.163 c 11.829,0 21.419,-9.589 21.419,-21.419 -10e-4,-11.829 -9.59,-21.418 -21.42,-21.418 z"
       fill="#4a80aa"
       id="path1979" /><path
       d="m 54.631,502.657 c 3.873,3.874 9.23,6.274 15.144,6.274 H 21.418 c -5.913,0 -11.27,-2.4 -15.144,-6.274 C 2.4,498.783 0,493.427 0,487.513 0,475.687 9.591,466.096 21.418,466.096 h 48.357 c -11.826,0 -21.418,9.591 -21.418,21.417 0,5.914 2.4,11.27 6.274,15.144 z"
       fill="#407093"
       id="path1981" /></g><text
     xml:space="preserve"
     style="font-weight:bold;font-size:74.6667px;line-height:1.25;font-family:sans-serif;-inkscape-font-specification:'sans-serif Bold'"
     x="64.206215"
     y="345.50192"
     id="text4253"><tspan
       sodipodi:role="line"
       id="tspan4251"
       x="64.206215"
       y="345.50192"
       style="font-style:normal;font-variant:normal;font-weight:bold;font-stretch:normal;font-size:74.6667px;font-family:Dyuthi;-inkscape-font-specification:'Dyuthi Bold';fill:#ffffff">PNG</tspan></text></g></svg>
