<?xml version="1.0" encoding="UTF-8"?>
<svg enable-background="new 0 0 512 512" version="1.1" viewBox="0 0 512 512" xml:space="preserve" xmlns="http://www.w3.org/2000/svg">
<path d="m303.46 472h-196.89c-22.056 0-40-17.944-40-40v-302c0-22.056 17.944-40 40-40h62.889v10c0 33.084 26.916 60 60 60s60-26.916 60-60v-10h63c22.056 0 40 17.944 40 40v146c0 11.046 8.954 20 20 20s20-8.954 20-20v-146c0-44.112-35.888-80-80-80h-63v-30c0-11.046-8.954-20-20-20h-80c-11.046 0-20 8.954-20 20v30h-62.889c-44.112 0-80 35.888-80 80v302c0 44.112 35.888 80 80 80h196.89c11.046 0 20-8.954 20-20s-8.955-20-20.001-20zm-94-432h40v60c0 11.028-8.972 20-20 20s-20-8.972-20-20zm258.44 369.59-109.56-109.8c-2.327-2.332-5.193-4.054-8.346-5.011l-78.725-23.912c-6.979-2.122-14.56-0.272-19.779 4.821-5.221 5.094-7.255 12.626-5.308 19.654l22.362 80.725c0.921 3.322 2.684 6.351 5.119 8.79l109.37 109.57c11.697 11.696 27.063 17.545 42.427 17.545s30.729-5.849 42.427-17.545c23.395-23.394 23.395-61.458 0.017-84.836zm-173.46-89.885 39.128 11.886 73.924 74.089-28.289 28.289-73.513-73.652zm145.16 146.44c-7.797 7.799-20.485 7.799-28.271 0.014l-3.867-3.874 28.284-28.284 3.853 3.862c7.8 7.796 7.8 20.484 1e-3 28.282z" fill="#ccc"/>















</svg>
