<?xml version="1.0" encoding="UTF-8"?>
<svg width="164.78mm" height="149.18mm" version="1.1" viewBox="0 0 164.78 149.18" xmlns="http://www.w3.org/2000/svg">
<g transform="translate(-23.704 -59.595)">
<path d="m23.704 145.48c0.44042-0.38675 5.0387 1.9902 5.5135 2.1994 4.6699 2.0535 9.1911 4.4318 13.526 7.1211 11.227 6.8706 20.641 16.334 27.452 27.597 5.5425 9.2296 9.7389 26.38 23.136 26.38 6.4178 0 13.712 0.20783 18.59-4.6878 5.9622-5.9911 6.0696-14.735 7.9125-22.47 9.1319-36.479 26.571-70.353 50.954-98.982 1.4974-1.7906 3.0183-3.5633 4.5598-5.3167 3.1311-3.5193 6.4536-6.8637 9.9508-10.02 0.47483-0.43079 1.2979-1.313 2.2792-2.3205 0.89874-0.91663 1.1547-2.2861 0.64687-3.4656-0.50648-1.1795-1.6764-1.9365-2.9605-1.9145-20.151 0.63999-68.096 11.188-95.098 92.209 0 0-41.144-28.484-66.463-6.3297z" fill="#4fba6f" stroke-width=".35234"/>
<g transform="matrix(.35234 0 0 .35234 18.692 59.596)" fill="#71c285">
<path d="m301.67 162.9c-1.5234 0-3.0195-0.38672-4.3477-1.1328-4.3359-2.4062-5.8984-7.8711-3.4961-12.207 45.73-82.324 100.36-110.32 102.63-111.47 4.4375-2.2305 9.8398-0.44531 12.074 3.9883 2.2305 4.4375 0.44531 9.8398-3.9883 12.074-0.6836 0.34766-52.223 27.152-94.988 104.13-1.5898 2.8633-4.6133 4.6367-7.8867 4.625z"/>
<path d="m274.72 207.81c-3.1133 0-6-1.6133-7.6367-4.2578-1.6367-2.6484-1.7852-5.9531-0.39453-8.7383l8.9844-17.965c1.4336-2.8711 4.293-4.7578 7.4961-4.9492 3.207-0.19141 6.2695 1.3398 8.0352 4.0195 1.7695 2.6797 1.9727 6.0976 0.53907 8.9688l-8.9844 17.965c-1.5234 3.043-4.6367 4.9609-8.0391 4.957z"/>
</g>
</g>
</svg>
